<svg xmlns="http://www.w3.org/2000/svg" width="16" height="16" viewBox="0 0 16 16">
  <!-- Open folder icon with documents - light theme -->
  <!-- Folder tab -->
  <path d="M 2 5 L 2 4 L 7 4 L 8 5 L 14 5 L 14 6 L 2 6 Z" fill="#FFB74D"/>
  <!-- Open folder base -->
  <path d="M 1 6 L 1 13.5 L 15 13.5 L 15 6 Z" fill="#FFA726" stroke="#F57C00" stroke-width="1"/>
  <!-- Top edge line -->
  <line x1="1" y1="6" x2="15" y2="6" stroke="#F57C00" stroke-width="1"/>
  <!-- Document papers inside folder -->
  <rect x="4" y="8" width="4" height="4.5" fill="#FFFFFF" stroke="#9E9E9E" stroke-width="0.5" rx="0.5"/>
  <rect x="8.5" y="8" width="4" height="4.5" fill="#FFFFFF" stroke="#9E9E9E" stroke-width="0.5" rx="0.5"/>
  <!-- Paper lines -->
  <line x1="4.5" y1="9" x2="7.5" y2="9" stroke="#BDBDBD" stroke-width="0.3"/>
  <line x1="4.5" y1="10" x2="7.5" y2="10" stroke="#BDBDBD" stroke-width="0.3"/>
  <line x1="4.5" y1="11" x2="7.5" y2="11" stroke="#BDBDBD" stroke-width="0.3"/>
  <line x1="9" y1="9" x2="12" y2="9" stroke="#BDBDBD" stroke-width="0.3"/>
  <line x1="9" y1="10" x2="12" y2="10" stroke="#BDBDBD" stroke-width="0.3"/>
  <line x1="9" y1="11" x2="12" y2="11" stroke="#BDBDBD" stroke-width="0.3"/>
</svg>
